<?xml version="1.0" standalone="no"?><!DOCTYPE svg PUBLIC "-//W3C//DTD SVG 1.1//EN" "http://www.w3.org/Graphics/SVG/1.1/DTD/svg11.dtd"><svg t="1652840158880" class="icon" viewBox="0 0 1024 1024" version="1.1" xmlns="http://www.w3.org/2000/svg" p-id="12375" xmlns:xlink="http://www.w3.org/1999/xlink" width="200" height="200"><defs><style type="text/css"></style></defs><path d="M29.658561 461.325108a161.572818 161.572818 0 0 0 70.348391 86.775041 161.693071 161.693071 0 0 0 2.493259-111.6916 161.669021 161.669021 0 0 0-70.364425-86.775041 161.556784 161.556784 0 0 0-2.477225 111.6916z" fill="#FFBF31" p-id="12376"></path><path d="M32.135786 392.219338a162.767337 162.767337 0 0 0-9.788648 37.936021c1.394942 10.40595 3.775965 20.835951 7.311423 31.169749a161.572818 161.572818 0 0 0 70.348391 86.775041 163.079997 163.079997 0 0 0 9.788648-37.936022 162.502779 162.502779 0 0 0-7.295389-31.177765 161.54075 161.54075 0 0 0-70.364425-86.767024z" fill="#FF8B00" p-id="12377"></path><path d="M113.876208 432.520348a174.183418 174.183418 0 0 0-26.167197-48.790919c-0.088186-0.128271-0.144304-0.272575-0.240507-0.392828-0.152321-0.192406-0.320676-0.368778-0.464981-0.561184a175.810851 175.810851 0 0 0-9.179363-10.943083c-0.54515-0.601268-1.066249-1.226587-1.611399-1.819839-2.974274-3.182714-6.092852-6.213106-9.299616-9.171346-0.873843-0.801691-1.699585-1.659501-2.581445-2.445157-3.014358-2.661614-6.173021-5.154874-9.371769-7.608049-1.114351-0.857809-2.164566-1.787771-3.302967-2.621529a172.80451 172.80451 0 0 0-13.356173-8.858687 11.848994 11.848994 0 0 0-10.053206-1.050215 12.025366 12.025366 0 0 0-7.303406 6.982729c-1.63545 4.17681-3.046426 8.441807-4.353182 12.738871-0.344727 1.138401-0.689454 2.268786-1.010131 3.407187a173.558099 173.558099 0 0 0-3.054443 12.434229c-0.20844 1.018148-0.360761 2.036295-0.553167 3.046426-0.665404 3.591576-1.226587 7.199186-1.667517 10.822829-0.128271 1.058232-0.288609 2.116464-0.392829 3.174697a175.089329 175.089329 0 0 0-0.865826 13.115666c-0.024051 0.865826-0.024051 1.723636-0.032068 2.581445-0.056118 4.297064 0.016034 8.586111 0.280592 12.867141 0.024051 0.360761 0.024051 0.721522 0.048101 1.074267l0.032068 0.761606c0.016034 0.192406 0.088186 0.368778 0.112237 0.561184a174.183418 174.183418 0 0 0 8.818602 43.38752 174.319706 174.319706 0 0 0 75.5674 93.212621 11.969248 11.969248 0 0 0 10.053205 1.050215 12.025366 12.025366 0 0 0 7.303406-6.982729 174.608314 174.608314 0 0 0 2.645581-119.973068z m-20.258734 96.876348a150.317075 150.317075 0 0 1-52.582917-71.967807 149.932263 149.932263 0 0 1-6.854458-30.199702l40.036452-21.076459a150.260957 150.260957 0 0 1 16.907664 34.144023 150.445346 150.445346 0 0 1 2.493259 89.099945z" fill="#33363A" p-id="12378"></path><path d="M304.50231 461.325108a161.572818 161.572818 0 0 1-70.348392 86.775041 161.64497 161.64497 0 0 1-2.493259-111.6916 161.596868 161.596868 0 0 1 70.364425-86.775041 161.596868 161.596868 0 0 1 2.477226 111.6916z" fill="#FFBF31" p-id="12379"></path><path d="M231.660659 478.986362a162.502779 162.502779 0 0 0-7.295389 31.177765 162.975777 162.975777 0 0 0 9.788648 37.936022 161.54075 161.54075 0 0 0 70.348392-86.775041c3.519424-10.333798 5.91648-20.763799 7.311422-31.185783a162.534847 162.534847 0 0 0-9.788648-37.919987 161.500665 161.500665 0 0 0-70.364425 86.767024z" fill="#FF8B00" p-id="12380"></path><path d="M324.857246 420.350677c0.008017-0.176372 0.008017-0.360761 0.02405-0.537133 0.280592-4.433352 0.352744-8.882737 0.288609-13.340139-0.008017-0.825742-0.008017-1.651484-0.032067-2.485242a175.65853 175.65853 0 0 0-0.865827-13.147734c-0.112237-1.058232-0.264558-2.116464-0.392828-3.174697a176.885117 176.885117 0 0 0-1.675535-10.838863c-0.184389-1.010131-0.33671-2.020261-0.54515-3.022375a170.503656 170.503656 0 0 0-3.070476-12.474313c-0.31266-1.114351-0.64937-2.212667-0.98608-3.319001a170.118844 170.118844 0 0 0-4.369217-12.778956 12.009332 12.009332 0 0 0-17.364628-5.924497c-0.320676 0.192406-0.609285 0.424896-0.929962 0.617302-4.273013 2.581445-8.425773 5.323229-12.442245 8.249401-1.082283 0.793674-2.084397 1.683551-3.150646 2.49326-3.262883 2.493259-6.477664 5.042637-9.548141 7.752352-0.817725 0.729539-1.587348 1.523213-2.397056 2.268786-3.278916 3.014358-6.469647 6.116903-9.500039 9.363752-0.497048 0.529116-0.962029 1.0903-1.443044 1.627433a174.608314 174.608314 0 0 0-9.339701 11.135488c-0.136287 0.176372-0.296626 0.328693-0.424896 0.513083-0.088186 0.112237-0.136287 0.248524-0.216457 0.360761a174.207469 174.207469 0 0 0-26.191247 48.822986 174.472027 174.472027 0 0 0 2.669631 119.973068 12.009332 12.009332 0 0 0 17.356612 5.932514 174.319706 174.319706 0 0 0 75.5674-93.212621c4.810146-14.077695 7.696234-28.628388 8.802568-43.275283 0.032068-0.23249 0.120254-0.44093 0.136287-0.673421 0.016034-0.296626 0.016034-0.601268 0.040085-0.905911zM240.551413 529.396696a150.349143 150.349143 0 0 1 2.493259-89.091928 150.100618 150.100618 0 0 1 16.907665-34.144023l40.036452 21.076458a150.060534 150.060534 0 0 1-6.854459 30.199703 150.325092 150.325092 0 0 1-52.582917 71.95979z" fill="#33363A" p-id="12381"></path><path d="M96.76812 1000.494418a11.464182 11.464182 0 0 1-11.464182 11.472199H66.672638a11.464182 11.464182 0 0 1-11.464183-11.472199v-22.912331c0-6.333359 5.13884-11.456165 11.464183-11.456165h18.6313c6.325343 0 11.464182 5.122806 11.464182 11.456165v22.912331zM278.952415 1000.494418a11.464182 11.464182 0 0 1-11.464182 11.472199h-18.6313a11.464182 11.464182 0 0 1-11.464183-11.472199v-22.912331c0-6.333359 5.122806-11.456165 11.464183-11.456165h18.6313c6.325343 0 11.464182 5.122806 11.464182 11.456165v22.912331z" fill="#FF8B00" p-id="12382"></path><path d="M85.311955 1023.991983H66.672638a23.521616 23.521616 0 0 1-23.489549-23.497565v-22.912331a23.513599 23.513599 0 0 1 23.489549-23.481531h18.6313a23.513599 23.513599 0 0 1 23.489548 23.481531v22.912331a23.513599 23.513599 0 0 1-23.481531 23.497565z m-18.070117-45.840695v22.34313l17.508933-0.537133v-21.805997H67.241838zM267.488233 1023.991983h-18.6313a23.521616 23.521616 0 0 1-23.489549-23.497565v-22.912331a23.513599 23.513599 0 0 1 23.489549-23.481531h18.6313a23.513599 23.513599 0 0 1 23.489548 23.481531v22.912331a23.521616 23.521616 0 0 1-23.489548 23.497565z m-18.070117-45.840695v22.34313l17.508933-0.537133v-21.805997h-17.508933z" fill="#33363A" p-id="12383"></path><path d="M305.760965 841.110217V639.5731c0-70.997761-57.777875-128.775636-128.76762-128.775637h-19.809786c-71.005778 0-128.775636 57.769858-128.775636 128.775637v201.537117a54.731449 54.731449 0 0 0-14.638879 37.270618v45.656306a55.036092 55.036092 0 0 0 55.036092 55.036092h196.542582a55.036092 55.036092 0 0 0 55.052125-55.036092v-45.656306a54.803601 54.803601 0 0 0-14.638878-37.270618z" fill="#FFBF31" p-id="12384"></path><path d="M305.760965 841.110217v-167.553433c0-71.005778-57.777875-128.775636-128.76762-128.775636h-19.809786c-71.005778 0-128.775636 57.769858-128.775636 128.775636V875.085884a54.723432 54.723432 0 0 0-14.638879 37.286652v11.656588a55.036092 55.036092 0 0 0 55.036092 55.036092h196.542582a55.036092 55.036092 0 0 0 55.052125-55.036092v-11.656588a54.771534 54.771534 0 0 0-14.638878-37.286652v-33.975667z" fill="#FF8B00" p-id="12385"></path><path d="M265.347718 991.098599H68.805136c-36.973992 0-67.061458-30.087466-67.061458-67.061458v-45.656306c0-15.216096 5.170907-29.854975 14.638879-41.711987V639.5731c0-77.635763 63.165239-140.801002 140.801002-140.801003h19.809786c77.635763 0 140.801002 63.165239 140.801002 140.801003v197.095748a66.700697 66.700697 0 0 1 14.638879 41.70397v45.656306c-0.008017 36.982009-30.1035 67.069475-67.085508 67.069475z m-108.172176-468.267753c-64.375793 0-116.75027 52.366461-116.75027 116.75027v201.537118c0 3.022375-1.146418 5.940531-3.19073 8.169232a42.770218 42.770218 0 0 0-11.448149 29.101385v45.656307a43.058827 43.058827 0 0 0 43.010726 43.010726h196.542582a43.066844 43.066844 0 0 0 43.02676-43.010726v-45.656307a42.858404 42.858404 0 0 0-11.456166-29.109402 12.025366 12.025366 0 0 1-3.182713-8.161215v-201.545134c0-64.375793-52.366461-116.75027-116.75027-116.750271h-19.80177z" fill="#33363A" p-id="12386"></path><path d="M540.063196 717.34515l-145.1141-61.76228L255.262444 761.863055l64.977061 27.666359-158.959305 136.920817 309.324482-105.117733-72.761481-30.961309z" fill="#FFBF31" p-id="12387"></path><path d="M360.436295 808.850168l142.219996-73.034056-136.712378-58.170704L255.262444 761.863055l64.977061 27.666359-158.959305 136.920817 264.389697-89.837501z" fill="#FF8B00" p-id="12388"></path><path d="M161.2802 938.475597a12.025366 12.025366 0 0 1-3.864151-23.409379l279.517608-94.992375-43.796383-18.639317a12.025366 12.025366 0 0 1-0.793674-21.757896l119.411884-61.313332-115.082752-48.967291-117.664198 89.508808 45.944915 19.561262a12.025366 12.025366 0 1 1-9.427887 22.126673l-64.977061-27.666358a12.009332 12.009332 0 0 1-2.565412-20.627512l139.686652-106.280184a12.009332 12.009332 0 0 1 11.985281-1.499163l145.122117 61.754263a12.025366 12.025366 0 0 1 0.793674 21.757896L426.158929 789.345025l49.159696 20.91612a12.009332 12.009332 0 0 1-0.841775 22.447349L165.152368 937.826227a11.929163 11.929163 0 0 1-3.872168 0.64937z" fill="#33363A" p-id="12389"></path><path d="M218.023894 677.27663c-3.078494 0-6.156987-1.170469-8.505942-3.519423a54.146215 54.146215 0 0 0-76.473311 0 12.025366 12.025366 0 1 1-17.003867-17.003868c30.456244-30.456244 80.024802-30.456244 110.481045 0a12.025366 12.025366 0 0 1-8.497925 20.523291z" fill="#33363A" p-id="12390"></path><path d="M218.023894 740.746512c-3.078494 0-6.156987-1.170469-8.505942-3.519424-10.213544-10.205527-23.802208-15.841415-38.248681-15.841415s-28.019103 5.627871-38.232647 15.841415a12.025366 12.025366 0 1 1-17.003867-17.003867 77.571628 77.571628 0 0 1 55.236514-22.880263 77.64378 77.64378 0 0 1 55.252548 22.880263 12.025366 12.025366 0 0 1-8.497925 20.523291z" fill="#33363A" p-id="12391"></path><path d="M788.16253 456.186268c-122.594598-0.064135-222.060409-99.529946-222.092476-222.100493C566.086088 111.419025 665.519831 12.025366 788.154513 12.025366c122.66675-0.048101 222.076442 99.44176 222.076443 222.076443s-99.401675 222.028341-222.068426 222.084459z" fill="#FFBF31" p-id="12392"></path><path d="M788.154513 12.025366c122.66675-0.048101 222.076442 99.44176 222.076443 222.076443s-99.393658 222.028341-222.060409 222.084459" fill="#FF8B00" p-id="12393"></path><path d="M591.050748 131.814045h394.207531a222.389102 222.389102 0 0 0-21.918234-34.127988H612.968981a223.166742 223.166742 0 0 0-21.918233 34.127988z" fill="#FDFFDC" p-id="12394"></path><path d="M788.154513 131.814045h197.103766v-0.008017a228.642292 228.642292 0 0 0-10.261645-17.677288 216.184013 216.184013 0 0 0-5.667956-8.361638c-1.940092-2.7498-3.928286-5.435465-5.99665-8.081045H788.154513v34.127988z" fill="#E6FF2E" p-id="12395"></path><path d="M566.070054 234.085775c0 23.778157 3.791999 46.65842 10.726626 68.159774h422.7317a221.884037 221.884037 0 0 0 10.694559-68.14374c0-23.77014-3.775965-46.65842-10.694559-68.127707H576.764613a221.635512 221.635512 0 0 0-10.694559 68.111673z" fill="#FDFFDC" p-id="12396"></path><path d="M1009.757958 220.336773a230.005167 230.005167 0 0 0-0.913928-10.814813c-0.216457-1.980177-0.489032-3.936303-0.753589-5.908463-0.200423-1.443044-0.376795-2.894105-0.609285-4.337148a238.238534 238.238534 0 0 0-1.53123-8.602146c-0.408862-2.012245-0.865826-4.024489-1.314774-6.036733-0.248524-1.066249-0.489032-2.148532-0.753589-3.206765a265.199405 265.199405 0 0 0-1.627433-6.261207c-0.23249-0.865826-0.489032-1.715619-0.737556-2.565411a180.460659 180.460659 0 0 0-1.988194-6.621968H788.154513l0.016034 136.271447h211.36585a235.015736 235.015736 0 0 0 5.090738-18.655351c0.472998-2.012245 0.937979-4.024489 1.330808-6.060784 0.561184-2.846003 1.082283-5.70804 1.531229-8.586112 0.23249-1.451061 0.408862-2.918155 0.609286-4.377233 0.264558-1.956126 0.529116-3.896219 0.753589-5.860362a200.567071 200.567071 0 0 0 0.913928-10.830846c0.080169-1.146418 0.160338-2.300853 0.216457-3.471322 0.144304-3.423221 0.248524-6.846442 0.248524-10.293714 0-3.463305-0.112237-6.886526-0.248524-10.285696-0.064135-1.186503-0.144304-2.340938-0.224474-3.495373z" fill="#E6FF2E" p-id="12397"></path><path d="M613.065184 370.525577h350.250811a221.811884 221.811884 0 0 0 21.934267-34.144022H591.106866a222.54944 222.54944 0 0 0 21.958318 34.144022z" fill="#FDFFDC" p-id="12398"></path><path d="M788.16253 336.381555v34.144022h175.153465c2.068363-2.653597 4.072591-5.347279 6.012683-8.089062 0.032068-0.032068 0.048101-0.064135 0.064135-0.096203 1.924059-2.717733 3.808033-5.483567 5.603821-8.281469l0.096202-0.160338a219.919894 219.919894 0 0 0 10.157426-17.51695v-0.016034H788.16253z" fill="#E6FF2E" p-id="12399"></path><path d="M1010.976529 305.933328c0.096203-0.296626 0.160338-0.609285 0.256541-0.905911 1.611399-5.050654 3.030392-10.181477 4.297064-15.368418 0.256541-1.050215 0.489032-2.100431 0.729539-3.150645 1.162452-5.066688 2.196634-10.17346 3.030392-15.352384l0.160338-0.865827a237.164268 237.164268 0 0 0 2.172583-19.849871 234.173961 234.173961 0 0 0 0.633336-16.32243c0-5.571753-0.264558-11.095404-0.641353-16.595005-0.072152-0.994097-0.136287-1.996211-0.216457-2.990307-4.537571-55.140312-28.13134-106.392422-67.694793-145.955876C909.490456 24.347358 850.734518 0 788.242699 0h-0.096202c-74.557269 0-141.041509 35.082001-183.948016 89.564926-0.23249 0.248524-0.505065 0.456964-0.713505 0.729539-0.464981 0.593251-0.849793 1.242621-1.298739 1.835872a236.402662 236.402662 0 0 0-20.972239 32.684945c-0.256541 0.489032-0.577218 0.945995-0.833758 1.443044-0.144304 0.272575-0.216457 0.561184-0.336711 0.833759a232.314037 232.314037 0 0 0-14.590777 34.921663c-0.032068 0.096203-0.10422 0.168355-0.136288 0.264558-0.080169 0.248524-0.128271 0.497048-0.208439 0.745572-1.63545 5.130823-3.086511 10.349832-4.369217 15.632976-0.23249 0.962029-0.448947 1.924059-0.665403 2.886088-1.186503 5.154874-2.244735 10.357849-3.086511 15.632976l-0.12827 0.705488a232.867204 232.867204 0 0 0-2.1806 19.889955c-0.376795 5.395381-0.633336 10.822829-0.633336 16.314414a233.476489 233.476489 0 0 0 0.921945 20.05831c0.464981 5.427449 1.066249 10.822829 1.900008 16.146058l0.12827 0.721522c0.841776 5.283144 1.900008 10.486119 3.094528 15.64901 0.224473 0.954012 0.432913 1.916042 0.665403 2.870054 1.290723 5.275127 2.733767 10.486119 4.377233 15.616942 0.088186 0.264558 0.136287 0.537133 0.224474 0.801691 0.032068 0.10422 0.10422 0.176372 0.144304 0.280592a232.249902 232.249902 0 0 0 14.694998 35.082001c0.096203 0.20844 0.144304 0.424896 0.248524 0.625319 0.344727 0.657387 0.721522 1.29874 1.074266 1.956126 0.729539 1.362875 1.475112 2.701699 2.228701 4.04854 1.0903 1.948109 2.196634 3.888202 3.343052 5.804243 0.689454 1.162452 1.402959 2.30887 2.116464 3.455289a251.498505 251.498505 0 0 0 5.89243 9.035058c1.515196 2.20465 3.06246 4.377233 4.649808 6.533782 0.553167 0.745573 1.106334 1.499162 1.667517 2.236718 0.729539 0.970046 1.42701 1.964143 2.172583 2.918156 0.184389 0.23249 0.416879 0.408862 0.617302 0.625319 42.906506 54.498959 109.398763 89.629061 183.964049 89.669146h0.016034c74.501151-0.032068 140.93729-35.082001 183.835779-89.492774 0.256541-0.272575 0.553167-0.505065 0.785657-0.801691 0.513082-0.657387 0.937979-1.378909 1.443044-2.036295a237.300556 237.300556 0 0 0 20.795866-32.428404c0.272575-0.521099 0.609285-1.002114 0.88186-1.523213 0.152321-0.288609 0.224473-0.593251 0.352744-0.88186a232.650748 232.650748 0 0 0 14.542676-34.793393c0.032068-0.120254 0.120254-0.20844 0.152322-0.328693z m-37.2145 26.335552c-2.068363 3.904235-4.25698 7.744336-6.573866 11.5203-0.737556 1.202537-1.523213 2.373006-2.28482 3.559509-1.851906 2.878071-3.775965 5.70804-5.756142 8.489908-0.633336 0.88186-1.250638 1.779754-1.891991 2.661614H619.085884c-0.392829-0.529116-0.75359-1.066249-1.138401-1.603382-2.437141-3.375119-4.778079-6.814374-7.014797-10.325781-0.521099-0.809708-1.050215-1.611399-1.563297-2.429124a213.137587 213.137587 0 0 1-15.3123-29.871009h388.186832a203.7097 203.7097 0 0 1-8.481892 17.997965z m24.010648-85.283896c-0.072152 1.210554-0.176372 2.41309-0.272575 3.615627-0.256541 3.254866-0.585234 6.501715-0.98608 9.740546-0.144304 1.130384-0.272575 2.268786-0.432913 3.391153a209.994958 209.994958 0 0 1-5.154874 25.108965l-0.392829 1.386925H585.799671l-0.368778-1.306756a209.946857 209.946857 0 0 1-5.186941-25.197151c-0.160338-1.146418-0.296626-2.300853-0.44093-3.455288-0.400846-3.198747-0.729539-6.405512-0.978063-9.620293-0.096203-1.242621-0.20844-2.477225-0.288609-3.727863a207.333344 207.333344 0 0 1-0.432913-12.835074c0-4.297064 0.168355-8.578094 0.432913-12.851108 0.080169-1.234604 0.184389-2.461192 0.280592-3.687779 0.256541-3.222798 0.577218-6.437579 0.978063-9.644344 0.144304-1.154435 0.280592-2.30887 0.44093-3.463305 1.210554-8.489908 2.934189-16.899648 5.178924-25.19715l0.352745-1.250638h404.813904a210.04306 210.04306 0 0 1 5.627871 27.297581l0.184389 1.499162c0.489032 3.743897 0.857809 7.511845 1.146418 11.279793 0.080169 1.026165 0.160338 2.044312 0.224474 3.070477 0.264558 4.305081 0.432913 8.618179 0.432913 12.947311 0.008017 4.321115-0.168355 8.618179-0.424896 12.899209zM594.033038 153.948736c2.549378-6.140954 5.379347-12.137603 8.481892-17.973914 2.07638-3.928286 4.28103-7.800454 6.613951-11.60047 0.713505-1.162452 1.467095-2.292836 2.204651-3.439255 1.883974-2.942206 3.848117-5.828294 5.876395-8.66628 0.609285-0.849793 1.19452-1.715619 1.819839-2.549378h338.329664a210.724497 210.724497 0 0 1 17.220324 27.650325c0.080169 0.160338 0.20844 0.264558 0.296626 0.41688 2.733767 5.291161 5.275127 10.670508 7.543913 16.162092H594.033038zM788.16253 24.050732h0.080169c56.070273 0 108.789478 21.846082 148.449135 61.513756l0.096203 0.104219h-297.106709C677.713552 47.620449 730.240351 24.050732 788.16253 24.050732zM639.75348 382.550943h296.842151c-38.032224 38.024207-90.526955 61.585908-148.417067 61.617976-57.890112-0.040085-110.384843-23.601785-148.425084-61.617976z" fill="#33363A" p-id="12400"></path><path d="M537.008753 465.525969a12.025366 12.025366 0 0 1-12.025366-12.025366v-41.904392h-41.904392a12.025366 12.025366 0 0 1 0-24.050732h53.929758a12.025366 12.025366 0 0 1 12.025366 12.025366v53.929758a12.025366 12.025366 0 0 1-12.025366 12.025366z" fill="#33363A" p-id="12401"></path><path d="M476.168418 472.45258a12.025366 12.025366 0 0 1-8.505942-20.523292l60.848352-60.848352a12.025366 12.025366 0 1 1 17.003867 17.003868l-60.848352 60.848352a12.017349 12.017349 0 0 1-8.497925 3.519424zM450.586456 497.962389c-3.126595 0-6.25319-1.282706-8.497926-3.52744-2.244735-2.164566-3.527441-5.291161-3.52744-8.497926 0-3.134612 1.282706-6.25319 3.52744-8.505942 4.48947-4.409301 12.506381-4.409301 16.987834 0 2.244735 2.244735 3.527441 5.37133 3.527441 8.505942 0 3.198747-1.282706 6.333359-3.527441 8.497926-2.236718 2.244735-5.283144 3.527441-8.489908 3.52744zM425.09268 523.536334a12.0414 12.0414 0 0 1-12.025366-12.025366c0-3.198747 1.274689-6.245173 3.519424-8.497925 4.409301-4.497487 12.514398-4.497487 16.99585 0 2.244735 2.244735 3.527441 5.37133 3.527441 8.497925 0 3.134612-1.282706 6.25319-3.527441 8.505943s-5.363313 3.519424-8.489908 3.519423zM399.598904 549.03011c-3.198747 0-6.333359-1.282706-8.497925-3.52744-2.244735-2.244735-3.527441-5.37133-3.527441-8.497926 0-3.206764 1.282706-6.25319 3.527441-8.505942 4.409301-4.48947 12.506381-4.48947 16.99585 0 2.236718 2.244735 3.519424 5.37133 3.519424 8.505942 0 3.126595-1.282706 6.245173-3.519424 8.497926-2.244735 2.244735-5.37133 3.527441-8.497925 3.52744z" fill="#33363A" p-id="12402"></path><path d="M624.433164 552.934346a12.025366 12.025366 0 0 1-12.025366-12.025366v-41.904392h-41.904392a12.025366 12.025366 0 0 1 0-24.050732h53.929758a12.025366 12.025366 0 0 1 12.025366 12.025366v53.929758a12.025366 12.025366 0 0 1-12.025366 12.025366z" fill="#33363A" p-id="12403"></path><path d="M563.568778 559.868974a12.025366 12.025366 0 0 1-8.505942-20.523292l60.864385-60.864386a12.025366 12.025366 0 1 1 17.003868 17.003868l-60.864386 60.864386a12.001315 12.001315 0 0 1-8.497925 3.519424zM537.970782 585.426885c-3.134612 0-6.25319-1.282706-8.505942-3.527441a12.426212 12.426212 0 0 1-3.447272-8.497925c0-3.206764 1.282706-6.25319 3.447272-8.505942 4.497487-4.48947 12.58655-4.48947 17.07602 0 2.244735 2.244735 3.455288 5.37133 3.455288 8.505942 0 3.126595-1.202537 6.245173-3.455288 8.497925-2.228701 2.244735-5.363313 3.527441-8.570078 3.527441zM512.477006 610.920661c-3.126595 0-6.245173-1.282706-8.497925-3.527441a11.985281 11.985281 0 0 1 0-16.995851c4.48947-4.497487 12.578533-4.497487 16.99585 0 2.236718 2.236718 3.519424 5.37133 3.519424 8.497926s-1.282706 6.25319-3.447271 8.497925c-2.236718 2.244735-5.363313 3.527441-8.570078 3.527441zM486.98323 636.414437c-3.126595 0-6.25319-1.282706-8.505942-3.519424a12.0414 12.0414 0 0 1 0-17.003868c4.569639-4.497487 12.514398-4.409301 16.995851 0 2.244735 2.244735 3.527441 5.37133 3.52744 8.497926 0 3.134612-1.282706 6.25319-3.52744 8.505942a12.14562 12.14562 0 0 1-8.489909 3.519424z" fill="#33363A" p-id="12404"></path></svg>