<?xml version="1.0" standalone="no"?><!DOCTYPE svg PUBLIC "-//W3C//DTD SVG 1.1//EN" "http://www.w3.org/Graphics/SVG/1.1/DTD/svg11.dtd"><svg t="1652840139573" class="icon" viewBox="0 0 1024 1024" version="1.1" xmlns="http://www.w3.org/2000/svg" p-id="12226" xmlns:xlink="http://www.w3.org/1999/xlink" width="200" height="200"><defs><style type="text/css"></style></defs><path d="M331.584469 379.756274c4.374148 95.364444-105.027699 7.424012-195.054881 7.424012-90.035208 0-124.490649-8.009907-124.49065-46.991989 0-38.998135 72.972019-70.612387 163.015253-70.612387 128.190617 0 154.748515 71.230386 156.530278 110.180364z" fill="#8D9AA3" p-id="12227"></path><path d="M256.373207 415.479818c6.099729-6.822065 9.173671-18.138667 8.371075-35.715518-1.62927-35.466713-23.829072-97.683947-124.562883-108.527017-73.260953 6.902325-128.142461 35.137648-128.142461 68.951014 0 38.982083 34.455442 46.99199 124.498676 46.991989 40.017431 0 83.847193 17.368175 119.835593 28.299532z" fill="#5E707A" p-id="12228"></path><path d="M299.906008 436.162714c-19.294405 0-43.01914-7.704921-69.039298-16.156256-30.001035-9.743514-64.007023-20.787234-94.337122-20.787233C56.591037 399.219225 0 394.981518 0 340.188297c0-47.120405 75.259417-82.651325 175.054191-82.651326 120.172684 0 165.864468 62.851285 168.56119 121.673538 1.09153 23.692631-4.237706 39.680341-16.300723 48.870064-7.576505 5.770664-16.82241 8.082141-27.40865 8.082141zM175.054191 281.614848C86.086436 281.614848 24.077877 312.482686 24.077877 340.188297c0 24.174188 16.236515 34.953051 112.459737 34.953051 34.142429 0 70.066622 11.669744 101.777185 21.967049 30.996254 10.064553 63.027856 20.482247 74.408666 11.822238 6.517079-4.968069 7.319675-18.307212 6.854169-28.612544-1.075479-23.162918-14.639349-98.703243-144.523443-98.703243zM331.712884 279.311398h-9.173671a12.038938 12.038938 0 1 1 0-24.077877h9.173671a12.038938 12.038938 0 1 1 0 24.077877zM356.264292 310.042795h-9.189723a12.038938 12.038938 0 1 1 0-24.077877h9.189723a12.038938 12.038938 0 1 1 0 24.077877zM371.625978 342.30715H362.452307a12.038938 12.038938 0 1 1 0-24.077877h9.173671a12.038938 12.038938 0 1 1 0 24.077877zM380.807675 379.186431h-9.189723a12.038938 12.038938 0 1 1 0-24.077877h9.189723a12.038938 12.038938 0 1 1 0 24.077877zM380.807675 418.21667h-9.189723a12.038938 12.038938 0 1 1 0-24.077877h9.189723a12.038938 12.038938 0 1 1 0 24.077877z" fill="#33363A" p-id="12229"></path><path d="M647.173201 644.243726c4.374148-95.37247-105.027699-7.432038-195.070933-7.432038-90.027182 0-124.482623 8.009907-124.482623 46.99199 0 38.998135 72.972019 70.612387 162.9992 70.612386 128.198642 0.008026 154.764567-71.22236 156.554356-110.172338z" fill="#8D9AA3" p-id="12230"></path><path d="M571.961939 608.520182c6.083677 6.822065 9.173671 18.138667 8.371076 35.723544-1.62927 35.458687-23.845124 97.675921-124.562883 108.527017-73.268979-6.910351-128.150487-35.145674-128.150487-68.95904 0-38.982083 34.455442-46.99199 124.482623-46.991989 40.033483 0 83.863245-17.368175 119.859671-28.299532z" fill="#5E707A" p-id="12231"></path><path d="M647.29359 768.766479h-9.173671a12.038938 12.038938 0 1 1 0-24.077877h9.173671a12.038938 12.038938 0 1 1 0 24.077877zM671.844999 738.035082h-9.189723a12.038938 12.038938 0 1 1 0-24.077877h9.189723a12.038938 12.038938 0 1 1 0 24.077877zM687.206684 705.770727H678.033013a12.038938 12.038938 0 1 1 0-24.077877h9.173671a12.038938 12.038938 0 1 1 0 24.077877zM696.380355 668.891446h-9.173671a12.038938 12.038938 0 1 1 0-24.077877h9.173671a12.038938 12.038938 0 1 1 0 24.077877zM696.380355 629.861207h-9.173671a12.038938 12.038938 0 1 1 0-24.077877h9.173671a12.038938 12.038938 0 1 1 0 24.077877z" fill="#33363A" p-id="12232"></path><path d="M642.895365 595.927453c-21.381155-16.316775-56.173687-5.016224-96.447949 8.066089-30.001035 9.743514-64.007023 20.787234-94.345148 20.787233-78.838995 0-134.852162 4.221654-136.377094 56.912075h-57.843087a12.038938 12.038938 0 1 0 0 24.077877h62.417883c0.401298 0 0.786544-0.08026 1.179816-0.120389 19.310457 35.811829 85.516593 60.812691 169.139059 60.812691 155.141787 0 167.646231-101.343784 168.577242-121.665512 1.09153-23.692631-4.245732-39.680341-16.300722-48.870064z m-7.745051 47.770508c-1.067453 23.154892-14.623297 98.687191-144.531469 98.687191-88.959729 0-150.960262-30.867838-150.960262-58.573449 0-24.174188 16.228489-34.953051 112.443685-34.953051 34.150455 0 70.074648-11.669744 101.785212-21.967049 22.882009-7.424012 46.325835-15.048673 61.615287-15.048674 5.425548 0 9.823774 0.963115 12.801404 3.226436 6.509053 4.976095 7.311649 18.315238 6.846143 28.628596zM205.520731 681.69285a12.038938 12.038938 0 1 0 0 24.077877h0.722336c6.645494 0 11.67777-5.385418 11.677771-12.038938s-5.746587-12.038938-12.400107-12.038939zM163.857978 681.69285a12.038938 12.038938 0 1 0 0 24.077877h0.722336c6.645494 0 11.67777-5.385418 11.677771-12.038938s-5.754613-12.038938-12.400107-12.038939zM122.195225 681.69285a12.038938 12.038938 0 1 0 0 24.077877h0.722336c6.645494 0 11.67777-5.385418 11.677771-12.038938s-5.754613-12.038938-12.400107-12.038939z" fill="#33363A" p-id="12233"></path><path d="M962.753907 379.756274c4.374148 95.364444-105.043751 7.424012-195.070932 7.424012s-124.498675-8.009907-124.498676-46.991989c0-38.998135 72.988071-70.612387 163.015253-70.612387 128.198642 0 154.764567 71.230386 156.554355 110.180364z" fill="#8D9AA3" p-id="12234"></path><path d="M887.526594 415.479818c6.099729-6.822065 9.189723-18.138667 8.371075-35.715518-1.62927-35.466713-23.829072-97.683947-124.562883-108.527017-73.252927 6.910351-128.150487 35.145674-128.150487 68.959039 0 38.982083 34.471494 46.99199 124.498676 46.99199 40.025457-0.008026 83.871271 17.360149 119.843619 28.291506z" fill="#5E707A" p-id="12235"></path><path d="M962.882323 279.311398h-9.189723a12.038938 12.038938 0 1 1 0-24.077877h9.189723a12.038938 12.038938 0 1 1 0 24.077877zM987.409653 310.042795h-9.173671a12.038938 12.038938 0 1 1 0-24.077877h9.173671a12.038938 12.038938 0 1 1 0 24.077877zM1002.78739 342.30715h-9.189723a12.038938 12.038938 0 1 1 0-24.077877h9.189723a12.038938 12.038938 0 1 1 0 24.077877zM1011.961062 379.186431h-9.173672a12.038938 12.038938 0 1 1 0-24.077877h9.173672a12.038938 12.038938 0 1 1 0 24.077877zM1011.961062 418.21667h-9.173672a12.038938 12.038938 0 1 1 0-24.077877h9.173672a12.038938 12.038938 0 1 1 0 24.077877z" fill="#33363A" p-id="12236"></path><path d="M974.776794 379.210509c-2.696722-58.822253-48.396533-121.673538-168.577242-121.673538-95.950339 0-169.010644 32.882354-174.516452 77.289985l-0.048156-0.008026h-62.417883a12.038938 12.038938 0 1 0 0 24.077877h62.417883c0.75444 0 1.484802-0.088286 2.199113-0.224727 12.071042 37.296631 64.047153 40.539119 133.848918 40.539119 30.330099 0 64.336087 11.04372 94.337121 20.787233 26.020159 8.451335 49.744894 16.156255 69.055351 16.156256 10.570188 0 19.832145-2.311476 27.400624-8.082141 12.063016-9.189723 17.392253-25.169407 16.300723-48.862038z m-30.891916 29.720126c-11.38081 8.651984-43.428464-1.757685-74.416692-11.822238-31.694512-10.297305-67.634756-21.96705-101.777185-21.967049-96.215196 0-112.459737-10.786889-112.459737-34.953051 0-27.70561 62.008559-58.573448 150.976314-58.573449 129.908172 0 143.464016 75.548352 144.531469 98.695217 0.465506 10.313357-0.345116 23.652501-6.854169 28.62057zM516.855705 334.826956a12.038938 12.038938 0 1 0 0 24.077877h0.722336c6.645494 0 11.67777-5.385418 11.677771-12.038939s-5.746587-12.038938-12.400107-12.038938zM475.192952 334.826956a12.038938 12.038938 0 1 0 0 24.077877h0.722337c6.645494 0 11.67777-5.385418 11.67777-12.038939s-5.754613-12.038938-12.400107-12.038938zM433.546251 334.826956a12.038938 12.038938 0 1 0 0 24.077877h0.722336c6.645494 0 11.67777-5.385418 11.677771-12.038939s-5.754613-12.038938-12.400107-12.038938z" fill="#33363A" p-id="12237"></path></svg>